# xmcd
#
# Track frame offsets:
#  183
#  14065
#  27898
#  42298
#  55855
#  71513
#  85573
#  99878
#  117940
#  131590
#  146158
#  164095
#  178035
#  191775
#  205853
#  222643
#  237483
#  254508
#  270243
#  286143
#
# Disc length: 3995 seconds
#
# Revision: 0
# Processed by: cddbd v1.5.1PL0 Copyright (c) Steve Scherf et al.
# Submitted via: AltoMP3_Maker 3.0
#
DISCID=2d0f9914
DTITLE=Monnlight Moods Orchestra - Love Themes
DYEAR=1900
DGENRE=
TTITLE0=What are you doing the rest of your life
TTITLE1=If
TTITLE2=You don't bring me flowers
TTITLE3=Lullaby in Ragtime
TTITLE4=September morning
TTITLE5=Imagine
TTITLE6=After the lovin'
TTITLE7=Bright eyes
TTITLE8=When a man loves a woman
TTITLE9=What I did for love
TTITLE10=I won't last a day without you
TTITLE11=Do that to me one more time
TTITLE12=All in love is fair
TTITLE13=Greatest love of all
TTITLE14=he ain't heavy he's my brother
TTITLE15=I honestly love you
TTITLE16=I know him so well
TTITLE17=Sometimes when we touch
TTITLE18=Reunited
TTITLE19=She's out of my life
EXTD=
EXTT0=
EXTT1=
EXTT2=
EXTT3=
EXTT4=
EXTT5=
EXTT6=
EXTT7=
EXTT8=
EXTT9=
EXTT10=
EXTT11=
EXTT12=
EXTT13=
EXTT14=
EXTT15=
EXTT16=
EXTT17=
EXTT18=
EXTT19=
PLAYORDER=
